<?xml version="1.0" encoding="UTF-8" standalone="no"?>
<svg
   xmlns:dc="http://purl.org/dc/elements/1.1/"
   xmlns:cc="http://creativecommons.org/ns#"
   xmlns:rdf="http://www.w3.org/1999/02/22-rdf-syntax-ns#"
   xmlns:svg="http://www.w3.org/2000/svg"
   xmlns="http://www.w3.org/2000/svg"
   viewBox="0 0 976.66759 249.86131"
   height="249.86131"
   width="976.6676"
   id="svg2"
   version="1.1">
  <metadata
     id="metadata8">
    <rdf:RDF>
      <cc:Work
         rdf:about="">
        <dc:format>image/svg+xml</dc:format>
        <dc:type
           rdf:resource="http://purl.org/dc/dcmitype/StillImage" />
        <dc:title></dc:title>
      </cc:Work>
    </rdf:RDF>
  </metadata>
  <defs
     id="defs6" />
  <path
     id="path12"
     d="M 62.505009,249.66751 C 46.217049,248.47187 31.169822,241.57881 19.655858,230.03853 8.8564125,219.2144 2.5481125,206.35014 0.3396015,190.64766 c -0.452802,-3.21941 -0.452802,-13.14261 0,-16.36203 2.208511,-15.70247 8.516811,-28.56673 19.3162565,-39.39086 6.637597,-6.65277 13.945892,-11.48281 22.699602,-15.0021 4.59269,-1.84643 9.058509,-3.05603 15.435069,-4.18072 2.439261,-0.43022 14.00831,-0.47121 156.063251,-0.55286 l 153.42869,-0.0882 v 11.78669 11.7867 l -153.70601,0.0924 c -106.84656,0.0644 -154.171011,0.18216 -155.231281,0.38668 -3.43395,0.66239 -10.89078,3.91872 -15.5284,6.78112 -3.31575,2.04651 -10.145902,8.87279 -12.164627,12.1577 -3.049603,4.96237 -6.199521,12.31051 -6.776139,15.80739 -0.385319,2.33675 -0.385319,14.85723 0,17.19399 0.577025,3.49936 3.730388,10.85392 6.777615,15.80738 2.032011,3.30317 8.858321,10.12948 12.161481,12.16149 5.97193,3.67376 12.55256,6.32247 17.05534,6.86481 2.49703,0.30076 30.66381,0.36913 155.231291,0.37686 l 152.18073,0.01 v 11.78621 11.78621 l -151.76475,-0.0484 C 132.0471,249.78142 63.191389,249.71842 62.505009,249.66803 Z M 395.29205,148.36127 V 46.866539 l -6.11038,-0.07466 -6.11039,-0.07466 6.2762,-10.122276 c 3.45189,-5.567251 7.36088,-11.869405 8.68663,-14.004789 1.32574,-2.135384 5.02467,-8.094352 8.21986,-13.2421497 3.19518,-5.1478 5.87331,-9.354402 5.95143,-9.3479969954605 C 412.2835,0.0061073 416.52803,6.7685743 421.6377,15.027032 c 13.701,22.144135 16.53998,26.725122 18.17843,29.332942 l 1.48101,2.357245 -6.22497,0.07455 -6.22497,0.07455 0.0698,84.647501 0.0698,84.64749 16.84734,0.0715 16.84735,0.0715 v -50.61355 -50.61352 h 16.78475 16.78472 l -0.0929,54.00856 c -0.0919,53.38056 -0.0996,54.04082 -0.6678,56.78179 -3.01701,14.55445 -11.26937,21.8055 -26.97772,23.70434 -1.49013,0.18012 -15.31516,0.28406 -37.7852,0.28406 h -35.43519 z m 117.94034,47.34753 c 0.10244,-60.49519 -0.063,-55.58879 2.08758,-61.91226 3.02494,-8.89445 9.10385,-14.49204 18.63336,-17.15803 5.12625,-1.43413 3.48813,-1.37789 43.19298,-1.48279 l 36.95322,-0.0977 v 26.78215 c 0,16.87675 -0.10808,27.77815 -0.29221,29.47511 -0.89958,8.28987 -3.35771,14.40759 -7.57143,18.84354 -5.06668,5.33391 -11.2335,7.96613 -20.93796,8.9371 -1.6545,0.16554 -10.44201,0.28734 -20.72987,0.28734 h -17.8579 v 25.23635 25.23635 h -16.78473 -16.78472 z m 67.24587,-38.54784 -0.0735,-8.389 -16.84734,-0.0715 -16.84735,-0.0715 v 8.46049 8.46048 h 16.92075 16.92073 z m -7.42246,80.9117 v -11.78905 l 170.34537,-0.01 c 139.64693,-0.008 170.89512,-0.0756 173.39596,-0.37685 4.50277,-0.54234 11.08346,-3.19107 17.05534,-6.86482 3.30317,-2.03201 10.12952,-8.85831 12.16152,-12.16148 3.6737,-5.97192 6.3225,-12.55256 6.8648,-17.05534 0.4707,-3.9081 0.4707,-10.78998 0,-14.69809 -0.5423,-4.50278 -3.1911,-11.08342 -6.8648,-17.05534 -2.032,-3.30316 -8.85835,-10.12947 -12.16152,-12.16149 -4.66673,-2.87084 -12.10609,-6.11722 -15.53007,-6.77703 -1.05764,-0.20382 -44.05693,-0.32245 -140.25591,-0.38697 l -138.7306,-0.093 v -11.78674 -11.78675 l 138.45327,0.0889 c 150.42629,0.0966 138.86888,-0.0193 145.80237,1.46186 12.63672,2.69956 24.17736,9.00984 33.42026,18.27379 10.7994,10.82413 17.1078,23.68841 19.3162,39.39087 0.4528,3.21943 0.4528,13.14261 0,16.36203 -2.2075,15.69535 -8.5461,28.62531 -19.3099,39.38897 -6.6722,6.6722 -13.95945,11.48763 -22.70596,15.004 -4.59186,1.84607 -9.05363,3.05468 -15.43509,4.18105 -2.44277,0.43117 -15.12742,0.47138 -174.22791,0.55254 l -171.59333,0.0876 V 238.07265 Z M 80.591859,186.83447 c 0.0734,-17.23497 0.1178,-18.75513 0.58493,-20.03655 1.09574,-3.00579 3.1376,-4.93096 6.25288,-5.89552 1.41576,-0.43836 3.24811,-0.48289 19.862931,-0.48289 h 18.30328 l 0.071,22.53245 0.071,22.53246 h -5.68678 -5.68674 v -16.91667 -16.91668 h -2.77322 -2.77323 v 11.23156 11.23157 h -5.68508 -5.685121 v -11.23157 -11.23156 h -2.77323 -2.77322 v 16.91668 16.91667 h -5.69439 -5.69441 z m 54.909861,0 c 0.0734,-17.23497 0.1178,-18.75513 0.58494,-20.03655 0.7343,-2.01435 1.82338,-3.48184 3.34248,-4.5039 2.70659,-1.82102 2.84181,-1.8365 17.01888,-1.94762 l 12.82617,-0.10048 v 22.61927 22.61927 h -5.68512 -5.68511 v -8.45833 -8.45834 h -5.54645 -5.54645 v 8.45834 8.45833 h -5.6944 -5.6944 z m 22.40224,-12.41018 v -2.77322 h -5.54645 -5.54645 v 2.77322 2.77323 h 5.54645 5.54645 z m 21.07651,8.44086 v -22.61927 l 12.82618,0.10048 c 14.04881,0.11011 14.18079,0.12448 16.8803,1.83682 1.60299,1.0168 2.5885,2.2951 3.37504,4.37771 0.60739,1.60828 0.61392,1.79965 0.69178,20.27354 l 0.0786,18.64994 h -5.69438 -5.69439 v -8.45833 -8.45834 h -5.54645 -5.54646 v 8.45834 8.45833 h -5.68511 -5.68511 z m 22.46313,-8.44086 v -2.77322 h -5.54645 -5.54646 v 2.77322 2.77323 h 5.54646 5.54645 z m 20.86007,12.41018 c 0.0734,-17.23497 0.1178,-18.75513 0.58493,-20.03655 0.73432,-2.01435 1.82339,-3.48184 3.3425,-4.5039 2.70659,-1.82102 2.8418,-1.8365 17.01887,-1.94762 l 12.82616,-0.10048 v 5.7026 5.70259 h -11.23155 -11.23156 v 11.23156 11.23157 h 5.54645 5.54645 v -2.77322 -2.77323 h -2.77323 -2.77322 v -5.68512 -5.68511 h 8.47653 8.47652 l -0.0933,10.33027 c -0.0897,9.93474 -0.11709,10.38951 -0.71372,11.87754 -0.7529,1.87783 -2.20416,3.63024 -3.76285,4.54369 -2.40053,1.40681 -3.73623,1.52686 -17.03758,1.5313 l -12.28081,0.004 z m 43.47876,-3.95758 v -22.60753 l 5.61578,0.0751 5.61578,0.0751 0.071,22.53245 0.071,22.53246 h -5.68677 -5.68675 z m 21.13738,3.95758 c 0.0734,-17.23497 0.11782,-18.75513 0.58493,-20.03655 0.73432,-2.01435 1.8234,-3.48184 3.34252,-4.5039 2.70658,-1.82102 2.8418,-1.8365 17.01886,-1.94762 l 12.82618,-0.10048 v 22.61927 22.61927 h -5.68513 -5.6851 v -16.91667 -16.91668 h -5.54645 -5.54645 v 16.91668 16.91667 h -5.69441 -5.6944 z m 398.51249,-0.27732 c 0.0734,-17.23498 0.11782,-18.75513 0.58493,-20.03655 1.09576,-3.00579 3.13763,-4.93096 6.2529,-5.89552 1.41576,-0.43836 3.24812,-0.4829 19.86292,-0.4829 h 18.30329 l 0.071,22.53246 0.071,22.53246 h -5.68677 -5.68675 v -16.91668 -16.91667 h -2.77322 -2.77323 v 11.23156 11.23156 h -5.68512 -5.68511 v -11.23156 -11.23156 h -2.77322 -2.77323 v 16.91667 16.91668 h -5.6944 -5.69441 z m 54.84899,-3.95758 v -22.60753 l 5.61579,0.0751 5.61578,0.0751 0.071,22.53246 0.071,22.53246 h -5.68675 -5.68676 z m 20.86006,3.95758 c 0.0734,-17.23498 0.11781,-18.75513 0.58493,-20.03655 0.73433,-2.01435 1.82339,-3.48185 3.34251,-4.50391 2.70659,-1.82102 2.84182,-1.83649 17.01888,-1.94761 l 12.82616,-0.10048 v 22.61927 22.61927 h -5.68511 -5.68511 v -16.91668 -16.91667 h -5.54646 -5.54645 v 16.91667 16.91668 h -5.6944 -5.69439 z m 43.47877,-3.95758 v -22.60753 l 5.61578,0.0751 5.61579,0.0751 0.071,22.53246 0.071,22.53246 h -5.68677 -5.68674 z m 21.13739,3.95758 c 0.0734,-17.23498 0.1178,-18.75513 0.58492,-20.03655 0.73433,-2.01435 1.82339,-3.48185 3.34252,-4.50391 2.70658,-1.82102 2.84181,-1.83649 17.01885,-1.94761 l 12.82617,-0.10048 v 22.61927 22.61927 h -5.68512 -5.68511 v -16.91668 -16.91667 h -5.54643 -5.54646 v 16.91667 16.91668 h -5.6944 -5.6944 z m 43.53964,0 c 0.0737,-17.23498 0.11786,-18.75513 0.58497,-20.03655 0.73431,-2.01435 1.82341,-3.48185 3.34253,-4.50391 2.70657,-1.82102 2.84177,-1.83649 17.01885,-1.94761 l 12.82617,-0.10048 v 5.7026 5.70259 H 891.8381 880.60654 v 11.23156 11.23156 h 5.54645 5.54645 v -2.77323 -2.77322 h -2.77323 -2.77322 v -5.68511 -5.68511 h 8.47654 8.47653 l -0.0933,10.33027 c -0.0897,9.93474 -0.11709,10.3895 -0.71377,11.87753 -0.75284,1.87784 -2.2041,3.63025 -3.76282,4.5437 -2.40057,1.40681 -3.73623,1.52686 -17.03758,1.5313 l -12.28079,0.004 z"
     style="fill:#000000;stroke-width:0.99999994" />
</svg>
